<svg width="30" height="29" viewBox="0 0 30 29" fill="none" xmlns="http://www.w3.org/2000/svg">
<path d="M30 27.5872L3.05663 0L1.68441 1.40538L3.89884 3.67333H2.90416C1.35044 3.67333 0.0798645 4.92256 0.00726041 6.49897H6.66505L8.84317 8.72974H0V13.7862H13.773L15.9511 16.0169H0V22.8208C0 24.4641 1.29961 25.7951 2.90416 25.7951H25.4985L28.6278 29L30 27.5872Z" fill="#39646B"/>
<path d="M29.7314 6.50643C29.6588 4.93002 28.3883 3.68079 26.8345 3.68079H9.28613L12.0451 6.50643H29.7314Z" fill="#39646B"/>
<path d="M29.7314 8.73718H14.2231L19.1602 13.7862H29.7314V8.73718Z" fill="#39646B"/>
<path d="M29.7313 22.8208V16.017H21.3311L29.3756 24.2559C29.6007 23.8247 29.7313 23.3413 29.7313 22.8208Z" fill="#39646B"/>
</svg>
