<svg width="25" height="24" viewBox="0 0 25 24" fill="none" xmlns="http://www.w3.org/2000/svg">
<path d="M12 15.0175C14.5263 15.0175 17.1556 15.5696 19.8971 16.6643C22.6386 17.7591 24.0047 19.2 24.0047 20.9778V24H0V20.9825C0 19.2047 1.36608 17.7637 4.1076 16.669C6.84912 15.5743 9.47368 15.0175 12 15.0175ZM12 12C10.3626 12 8.95906 11.4152 7.78947 10.2456C6.61988 9.07602 6.03509 7.67251 6.03509 6.03509C6.03509 4.39766 6.61988 2.9848 7.78947 1.78713C8.95906 0.589474 10.3626 0 12 0C13.6374 0 15.0409 0.59883 16.2105 1.78713C17.3801 2.97544 17.9649 4.39766 17.9649 6.03509C17.9649 7.67251 17.3801 9.07602 16.2105 10.2456C15.0409 11.4152 13.6374 12 12 12Z" fill="#39646B"/>
</svg>
