<svg width="22" height="24" viewBox="0 0 22 24" fill="none" xmlns="http://www.w3.org/2000/svg">
<path d="M19.5009 21.8043V7.65957H2.13291V21.8043H19.5009ZM19.5009 2.19574C20.0764 2.19574 20.5775 2.41702 20.9973 2.85957C21.4171 3.30213 21.6338 3.81277 21.6338 4.39149V21.8043C21.6338 22.383 21.4239 22.8936 20.9973 23.3362C20.5707 23.7787 20.0764 24 19.5009 24H2.13291C1.55736 24 1.0563 23.7787 0.636487 23.3362C0.216677 22.8936 0 22.383 0 21.8043V4.39149C0 3.81277 0.209905 3.30213 0.636487 2.85957C1.06307 2.41702 1.55736 2.19574 2.13291 2.19574H3.25015V0H5.38306V2.19574H16.2507V0H18.3837V2.19574H19.5009Z" fill="#39646B"/>
</svg>
