<svg width="24" height="21" viewBox="0 0 24 21" fill="none" xmlns="http://www.w3.org/2000/svg">
<path d="M23.9715 11.6841L22.1575 1.52643C21.9981 0.629075 21.2059 0 20.3153 0C20.2075 0 4.42482 2.73833 4.42482 2.73833C3.40295 2.9141 2.72327 3.87159 2.90139 4.87533L3.07483 5.85595H17.32C19.1294 5.85595 20.5965 7.30837 20.5965 9.08921V10.3844V13.5297V14.1449L22.4481 13.8211C23.47 13.6454 24.1496 12.6879 23.9715 11.6841Z" fill="#fff"/>
<path d="M19.1951 14.9173H0V19.1497C0 20.1719 0.839055 20.9999 1.87498 20.9999H17.3248C18.3608 20.9999 19.1998 20.1719 19.1998 19.1497V14.9173H19.1951ZM5.57339 19.3301H2.3906C2.00154 19.3301 1.68748 19.0202 1.68748 18.6362C1.68748 18.2523 2.00154 17.9424 2.3906 17.9424H5.57807C5.96713 17.9424 6.28119 18.2523 6.28119 18.6362C6.28119 19.0202 5.96244 19.3301 5.57339 19.3301Z" fill="#fff"/>
<path d="M0 9.00134H19.1904C19.1436 8.02072 18.3233 7.24363 17.3202 7.24363H1.87498C0.867179 7.24363 0.051562 8.02072 0 9.00134Z" fill="#fff"/>
<path d="M0 10.3845H19.1951V13.5298H0V10.3845Z" fill="#fff"/>
</svg>
