<svg width="24" height="24" viewBox="0 0 24 24" fill="none" xmlns="http://www.w3.org/2000/svg">
<path d="M23.4745 9.91245L20.7219 9.23288C20.5578 8.71265 20.3421 8.20648 20.0889 7.71906C20.5015 7.03011 21.369 5.58191 21.369 5.58191C21.5332 5.30539 21.491 4.9492 21.2612 4.72423L19.2729 2.73706C19.0431 2.50741 18.6915 2.46522 18.4148 2.62926L16.2765 3.90874C15.7935 3.65566 15.2917 3.44475 14.7712 3.28072L14.096 0.529602C14.0162 0.220277 13.7349 0 13.4113 0H10.5978C10.2742 0 9.99285 0.220277 9.91782 0.534288C9.91782 0.534288 9.44889 2.45585 9.24256 3.2854C8.68923 3.45881 8.15465 3.68846 7.64821 3.96498L5.43018 2.63395C5.15351 2.46991 4.80182 2.51209 4.57204 2.74174L2.58379 4.72892C2.35402 4.95857 2.31181 5.31008 2.47594 5.58659L3.8499 7.87841C3.6295 8.31428 3.44193 8.76889 3.29656 9.23288L0.543956 9.91245C0.220396 9.98744 0 10.2686 0 10.592V13.4041C0 13.7275 0.220396 14.0087 0.534577 14.0837L3.28718 14.7632C3.456 15.2928 3.6717 15.8084 3.9343 16.3005L2.70571 18.3486C2.54159 18.6251 2.58379 18.9813 2.81357 19.2063L4.80182 21.1934C5.0269 21.4184 5.38329 21.4653 5.65996 21.3012C5.65996 21.3012 7.0386 20.4764 7.71386 20.0733C8.20154 20.3358 8.71267 20.5467 9.23787 20.7154L9.91313 23.4665C9.99285 23.7805 10.2742 24.0008 10.5931 24.0008H13.4066C13.7302 24.0008 14.0116 23.7805 14.0866 23.4665L14.7618 20.7154C15.3058 20.542 15.8263 20.3217 16.3234 20.0546C17.0174 20.4717 18.4054 21.3059 18.4054 21.3059C18.6821 21.47 19.0385 21.4278 19.2635 21.1981L21.2518 19.2109C21.4816 18.9813 21.5238 18.6298 21.3597 18.3533L20.0935 16.2489C20.3421 15.7756 20.5484 15.2788 20.7125 14.7726L23.4651 14.0977C23.7793 14.018 23.9997 13.7368 23.9997 13.4181V10.6061C24.0091 10.2686 23.7887 9.98744 23.4745 9.91245ZM12.0045 16.9191C9.28946 16.9191 7.08081 14.7117 7.08081 11.9981C7.08081 9.28443 9.28946 7.07698 12.0045 7.07698C14.7196 7.07698 16.9283 9.28443 16.9283 11.9981C16.9283 14.7117 14.7196 16.9191 12.0045 16.9191Z" fill="#39646B"/>
</svg>
